<?xml version="1.0" encoding="UTF-8"?><svg id="Ebene_2" xmlns="http://www.w3.org/2000/svg" viewBox="0 0 200.44 237.07"><defs><style>.cls-1{fill:#fff;}</style></defs><g id="Layer_1"><g><g><path class="cls-1" d="M34.12,31.21c2.6,1.06,5.17,2.19,7.73,3.34-.73,2.38-1.33,4.8-1.74,7.27,1.63,.35,3.25,.79,4.86,1.29,1.41,1.32,.53,3.52,.84,5.26,5.17,1.33,10.35-1.09,12.44-6.02,2.47,.92,4.9,1.91,7.35,2.94-1.55,4.43-4.23,9.16-9.18,10.27-8.49,2.06-17.1-3.86-20.47-11.47-1.99-3.99-1.98-8.54-1.82-12.88Z"/><path class="cls-1" d="M158.39,34.56c2.56-1.17,5.13-2.31,7.74-3.39,1.84,11.45-6.32,24.27-18.44,24.85-6.52,.54-11.53-4.86-12.98-10.78,2.38-.99,4.79-1.95,7.21-2.86,2.18,4.85,7.3,7.31,12.46,6.04-.04-1.72,.1-3.41,.39-5.08,1.7-.61,3.44-1.08,5.23-1.41-.37-2.5-.92-4.95-1.61-7.37Z"/></g><path class="cls-1" d="M172.96,192.33c-.4-7.38-.87-14.74-3-21.88-1.61-5.42-3.92-10.39-7.79-14.32,1.1-1.62,2.03-2.92,2.14-2.92-42.94-14.26-85.27-14.18-128.15-.08,.62,1.07,1.26,2.15,1.93,3.22-.69,.73-1.36,1.53-2,2.38-3.55,4.77-5.56,10.23-6.65,16.01-2.19,11.59-2.6,23.3-1.8,35.04,.4,5.95,1.39,11.84,3.98,17.31,2.31,4.89,5.77,8.47,11.33,9.57,9.45,1.87,20.17-2.92,25.48-11.45,2-3.21,3.5-6.7,6.04-9.59,2.08-2.36,4.45-4.35,7.23-6.03-1.2-.93-2.21-1.72-3.48-2.71h44.03c-1.29,1.01-2.33,1.83-3.48,2.75,5.68,3.23,9.24,8.11,12.17,13.64,4.21,7.96,10.94,12.45,19.9,13.61,8.12,1.04,14.34-2.18,17.79-9.26,1.56-3.2,2.56-6.58,3.19-10.07,1.5-8.35,1.61-16.77,1.15-25.23Zm-119.49-25.65h12.51v11.19l-4.97,4.82-1.24,1.2-6.3-6.1v-11.1Zm-12.09,24.6v-12.5h11.09l6.11,6.3-6.02,6.2h-11.18Zm24.6,12.1h-12.51v-11.1l6.3-6.1,6.21,6.02v11.18Zm12.09-12.1h-11.18l-6.02-6.2,1.41-1.45,4.7-4.85h11.09v12.5Zm64.32-24.59c3.32-.04,6.19,2.44,6.77,5.62,.08,.4,.12,.79,.12,1.2,0,3.93-3.02,6.93-6.95,6.92-.78,0-1.52-.12-2.2-.36-2.7-.9-4.56-3.43-4.54-6.52,.02-3.88,2.94-6.82,6.81-6.85Zm-13.44,25c-2.2-.02-4.08-1-5.29-2.56-.99-1.25-1.54-2.89-1.49-4.7,.12-3.72,3.17-6.57,6.95-6.49,3.23,.07,5.83,2.23,6.54,5.17,.14,.56,.21,1.15,.2,1.76-.05,3.81-3.14,6.86-6.9,6.82Zm13.39,11.68c-3.81-.02-6.77-3.03-6.76-6.89,0-3.88,2.94-6.84,6.79-6.86,3.82-.02,6.84,2.94,6.91,6.79,.08,3.83-3.05,6.97-6.93,6.96Zm12.44-11.51c-3.96-.03-6.9-3.04-6.84-7,.07-3.66,3.18-6.75,6.81-6.74,3.88,0,6.94,3.08,6.93,6.98,0,3.78-3.09,6.79-6.91,6.76Z"/><path class="cls-1" d="M185,0c-6.49,2.72-12.22,5.27-18.06,7.54-5.86,2.28-11.83,4.34-17.76,6.42-6.15,2.15-12.3,4.35-18.52,6.28-3.1,.96-11.88,4.21-13.65,4.83-4.77,1.69-9.55,3.4-14.27,5.24-1.62,.63-3.03,.78-4.73,.17-14.95-5.34-29.92-10.64-44.91-15.86C40.58,10.25,28.06,5.89,16.21,.23c-1.41,.72-2.07,1.77-2.72,2.81C2.51,20.66-2.29,39.73,1.04,60.36c3.23,20.01,15.29,33.78,32.36,43.73,1.47,.86,3.35,1.19,4.26,2.87-10.89,14.36-12.37,30.28-4.35,42.62,44.74-21.72,89.17-21.82,133.94,.19,7.92-15.14,6.7-29.6-4.82-43.23,20.19-10.36,34.23-25.34,37.28-48.24,2.83-21.27-2.61-40.65-14.7-58.31ZM75.14,96.79c-2.41-.1-3.85,.35-3.86,3.3-2.84-4.54-1.37-13.47,2.39-15.95,.49-.33,1.28-.37,1.91-.34,8.5,.37,15.92,6.07,18.78,14.76-6.69-2-12.98-1.51-19.23-1.77Zm53.91,3.89c0-3.22-.99-4.03-3.51-3.91-6.37,.32-12.8-.21-19.13,1.66,1.53-7.92,11.11-15.24,18.91-14.72,.73,.05,1.26,.25,1.79,.76,3.61,3.47,4.82,10.58,1.95,16.21Zm62.39-62.79c-.26,.35-.63,.07-.79-.31h0c-4.17-.63-8.15-2.42-12.73-2.14,.53,14.7-2.97,27.86-15.43,37.86-11.92-11.35-25.81-12.52-40.74-8.03,1.36,.1,2.73,.16,4.09,.31,6.45,.7,11.4,3.02,13.42,10.05,1.47,5.1,4.11,9.85,6.1,14.79,2.38,5.93-.66,13.1-7.45,16.43,4.74-7.08,3.61-13.27-1.02-19.18-1.1-1.39-2.05-2.96-2.73-4.58-2.43-5.79-7.17-7.27-12.77-6.74-7.78,.75-15.05,2.99-21.09,8.94-5.41-5.14-12.02-7.85-19.36-8.7-9.28-1.07-12.15,1.01-14.95,6.95-.35,.73-.84,1.41-1.26,2.12q-5.8,9.83-3.43,20.44c-5.85-2.98-8.58-10.02-6.14-15.96,2.04-4.93,4.52-9.73,6.11-14.8,1.92-6.1,5.98-8.88,11.98-9.54,1.76-.2,3.54-.38,5.34-.57-11.41-4.39-27.58-4.05-40.27,7.56-9.51-4.44-15.36-18.09-15.9-37.25-4.43-.56-8.45,1.51-12.71,2.01-.13,.42-.51,.69-.77,.34-.31-.44,.23-.48,.54-.57,11.6-11.12,25.3-14.63,40.85-11.03,13.54,3.13,26.04,9.19,39.02,13.9,1.62,.59,2.15,1.97,2.84,3.3,2.52,4.84,5.05,9.66,8,15.28,2.81-5.38,5.37-10.11,7.76-14.93,1.03-2.07,2.34-3.39,4.61-4.22,12.45-4.58,24.49-10.31,37.49-13.32,15.57-3.6,29.25-.06,40.9,10.99,.3,.12,.82,.2,.49,.61Z"/></g></g></svg>